<svg width="18" height="21" viewBox="0 0 18 21" fill="none" xmlns="http://www.w3.org/2000/svg">
<path d="M16.6836 9.5858L8.55191 17.7175C6.98921 19.2802 4.45777 19.2802 2.89506 17.7175C1.33235 16.1548 1.33235 13.6234 2.89506 12.0607L11.7339 3.22184C12.7097 2.24603 14.2936 2.24603 15.2694 3.22184C16.2452 4.19764 16.2452 5.78156 15.2694 6.75737L7.84481 14.182C7.4559 14.5709 6.8195 14.5709 6.43059 14.182C6.04168 13.7931 6.04168 13.1567 6.43059 12.7678L13.1481 6.05026L12.0874 4.9896L5.36993 11.7071C4.39413 12.6829 4.39413 14.2668 5.36993 15.2427C6.34574 16.2185 7.92966 16.2185 8.90547 15.2427L16.3301 7.81803C17.8928 6.25532 17.8928 3.72388 16.3301 2.16118C14.7674 0.59847 12.2359 0.598471 10.6732 2.16118L1.8344 11C-0.315205 13.1496 -0.315205 16.6286 1.8344 18.7782C3.984 20.9278 7.46297 20.9278 9.61257 18.7782L17.7443 10.6465L16.6836 9.5858Z" fill="#666B72"/>
</svg>
