<svg width="12" height="12" viewBox="0 0 12 12" fill="none" xmlns="http://www.w3.org/2000/svg">
<g clip-path="url(#clip0_2138_71228)">
<rect width="6.82991" height="5.49243" transform="matrix(1 0 0.000341717 1 2.93359 3.3056)" fill="white"/>
<path fill-rule="evenodd" clip-rule="evenodd" d="M8.18262 3.68675C8.2935 3.68976 8.39775 3.72932 8.47755 3.80534L8.86459 4.1836C9.04526 4.35978 9.02205 4.66728 8.81312 4.87195L5.4168 8.1876C5.25179 8.34876 4.93971 8.36035 4.76174 8.1876L3.18976 6.65317C2.98069 6.44893 2.95851 6.14173 3.13885 5.96586L3.5246 5.58792C3.70607 5.41174 4.02066 5.43318 4.22952 5.6366L5.08858 6.47533L7.77133 3.85567C7.89004 3.74091 8.04065 3.68365 8.18262 3.68675ZM7.37574 0.000694584C7.15389 -0.00707339 6.92025 0.0510298 6.68313 0.17542C6.164 0.447911 5.77198 0.391992 5.31539 0.17542C5.07558 0.0613864 4.83921 0.0046293 4.61902 0.0110511C4.25108 0.0226513 3.92371 0.213949 3.67891 0.612906C3.36864 1.11875 2.99565 1.24573 2.49374 1.29751C1.77229 1.37063 1.31349 1.76669 1.29406 2.49595C1.27872 3.08889 1.02008 3.38471 0.610994 3.68051C0.0231089 4.10485 -0.174288 4.67616 0.173157 5.31811C0.456103 5.83877 0.380805 6.22353 0.173624 6.68432C-0.122711 7.34687 -0.0105926 7.93963 0.61258 8.32192C1.11721 8.63254 1.24466 9.00342 1.29646 9.50627C1.37048 10.2274 1.76727 10.6852 2.49696 10.7056C3.08913 10.7224 3.38681 10.9792 3.68259 11.3891C4.12119 11.999 4.66702 12.1657 5.31937 11.8282C5.84481 11.5572 6.2271 11.6149 6.68711 11.8282C7.35254 12.1382 7.88726 11.999 8.32462 11.3891C8.62012 10.9793 8.9176 10.7224 9.50979 10.7056C10.2397 10.6853 10.6359 10.2275 10.7095 9.50627C10.761 9.00342 10.8881 8.63254 11.3925 8.32192C12.0148 7.93984 12.1282 7.3469 11.8304 6.68432C11.6229 6.22353 11.548 5.83875 11.8299 5.31811C12.1777 4.67616 11.98 4.10485 11.3909 3.68051C10.9808 3.38471 10.7237 3.08892 10.7071 2.49595C10.6879 1.76669 10.2281 1.37072 9.50657 1.29751C9.00359 1.24573 8.63219 1.11864 8.32094 0.612906C8.07658 0.214047 7.74379 0.0139519 7.37574 0.000694584Z" fill="#3A88EF"/>
</g>
<defs>
<clipPath id="clip0_2138_71228">
<rect width="12" height="12" fill="white" transform="matrix(1 0 0.000341717 1 0 0)"/>
</clipPath>
</defs>
</svg>
