<svg width="21" height="18" viewBox="0 0 21 18" fill="none" xmlns="http://www.w3.org/2000/svg">
<path d="M18.2793 2H15.1093L13.2793 0H7.2793L5.4493 2H2.2793C1.1793 2 0.279297 2.9 0.279297 4V16C0.279297 17.1 1.1793 18 2.2793 18H18.2793C19.3793 18 20.2793 17.1 20.2793 16V4C20.2793 2.9 19.3793 2 18.2793 2ZM18.2793 16H2.2793V4H6.3293L8.1593 2H12.3993L14.2293 4H18.2793V16ZM10.2793 5C7.5193 5 5.2793 7.24 5.2793 10C5.2793 12.76 7.5193 15 10.2793 15C13.0393 15 15.2793 12.76 15.2793 10C15.2793 7.24 13.0393 5 10.2793 5ZM10.2793 13C8.6293 13 7.2793 11.65 7.2793 10C7.2793 8.35 8.6293 7 10.2793 7C11.9293 7 13.2793 8.35 13.2793 10C13.2793 11.65 11.9293 13 10.2793 13Z" fill="black" fill-opacity="0.54"/>
</svg>
