<svg width="33" height="32" viewBox="0 0 33 32" fill="none" xmlns="http://www.w3.org/2000/svg">
<g clip-path="url(#clip0_2373_8770)">
<rect x="0.75" width="32" height="32" rx="16" fill="#E00000" fill-opacity="0.04"/>
<path d="M18.75 6H10.75C9.65 6 8.76 6.9 8.76 8L8.75 24C8.75 25.1 9.64 26 10.74 26H22.75C23.85 26 24.75 25.1 24.75 24V12L18.75 6ZM22.75 24H10.75V8H17.75V13H22.75V24ZM12.75 19.01L14.16 20.42L15.75 18.84V23H17.75V18.84L19.34 20.43L20.75 19.01L16.76 15L12.75 19.01Z" fill="#E00000"/>
</g>
<defs>
<clipPath id="clip0_2373_8770">
<rect width="32" height="32" fill="white" transform="translate(0.75)"/>
</clipPath>
</defs>
</svg>
