<svg width="11" height="12" viewBox="0 0 11 12" fill="none" xmlns="http://www.w3.org/2000/svg">
<path d="M4.97813 6.18281L4.97813 6.28281H5.07813H5.92188H6.02187L6.02187 6.18281L6.02187 3.27187L6.02187 3.17188H5.92188H5.07813H4.97813L4.97813 3.27187L4.97813 6.18281ZM5.47575 11.722L5.5 11.7281L5.52425 11.722C6.86196 11.3876 7.95972 10.6107 8.81607 9.39751C9.67139 8.18581 10.1 6.85561 10.1 5.40937L10.1 2.0625L10.1 1.9932L10.0351 1.96887L5.53511 0.281367L5.5 0.2682L5.46489 0.281367L0.964888 1.96887L0.9 1.9932L0.9 2.0625L0.9 5.40937C0.9 6.85561 1.32861 8.18581 2.18393 9.39751C3.04028 10.6107 4.13804 11.3876 5.47575 11.722ZM5.5 8.16719C5.66065 8.16719 5.80006 8.11176 5.91137 8.00044C6.02269 7.88912 6.07813 7.74971 6.07813 7.58906C6.07813 7.42841 6.02269 7.28901 5.91137 7.17769C5.80006 7.06637 5.66065 7.01094 5.5 7.01094C5.33935 7.01094 5.19994 7.06637 5.08862 7.17769C4.97731 7.28901 4.92188 7.42841 4.92188 7.58906C4.92188 7.74971 4.97731 7.88912 5.08862 8.00044C5.19994 8.11176 5.33935 8.16719 5.5 8.16719ZM8.0543 8.67852C7.39286 9.64103 6.54185 10.2961 5.5 10.6477C4.45815 10.2961 3.60714 9.64103 2.9457 8.67852C2.27774 7.70653 1.94375 6.61778 1.94375 5.40937L1.94375 2.7223L5.5 1.38187L9.05625 2.7223L9.05625 5.40937C9.05625 6.61778 8.72226 7.70653 8.0543 8.67852Z" fill="#FF5774" stroke="#FF5774" stroke-width="0.2"/>
</svg>
