<svg width="49" height="32" viewBox="0 0 49 32" fill="none" xmlns="http://www.w3.org/2000/svg">
<g clip-path="url(#clip0_2373_8740)">
<rect x="0.25" width="32" height="32" rx="16" fill="#E00000" fill-opacity="0.04"/>
<path d="M16.25 6C12.38 6 9.25 9.13 9.25 13C9.25 18.25 16.25 26 16.25 26C16.25 26 23.25 18.25 23.25 13C23.25 9.13 20.12 6 16.25 6ZM16.25 15.5C14.87 15.5 13.75 14.38 13.75 13C13.75 11.62 14.87 10.5 16.25 10.5C17.63 10.5 18.75 11.62 18.75 13C18.75 14.38 17.63 15.5 16.25 15.5Z" fill="#E00000"/>
</g>
<defs>
<clipPath id="clip0_2373_8740">
<rect width="32" height="32" fill="white" transform="translate(0.25)"/>
</clipPath>
</defs>
</svg>
