<svg width="44" height="44" viewBox="0 0 44 44" fill="none" xmlns="http://www.w3.org/2000/svg">
<rect width="44" height="44" rx="22" fill="#E52B2B"/>
<path d="M30.0376 13.6861C30.3729 13.9185 30.5489 14.3202 30.4858 14.7219L28.361 28.5333C28.3112 28.8554 28.1153 29.1376 27.8298 29.2969C27.5442 29.4563 27.2023 29.4762 26.9002 29.3501L22.7069 27.607L21.3756 30.0805C21.2029 30.4025 20.8344 30.5652 20.4792 30.4756C20.1239 30.3859 19.8749 30.0672 19.8749 29.702V26.5147C19.8749 26.3388 19.9347 26.1661 20.0442 26.0267L25.5323 18.9683C25.6153 18.7325 25.3165 18.4935 25.1007 18.6894L19.1578 24.0645L18.0954 25.024C17.7899 25.2996 17.355 25.376 16.9732 25.2166L14.1511 24.0413C13.7793 23.8853 13.527 23.5333 13.5037 23.1283C13.4805 22.7232 13.6863 22.3414 14.0383 22.1389L28.9121 13.6396C29.2674 13.437 29.7056 13.457 30.0409 13.6861H30.0376Z" fill="white"/>
</svg>
