<svg width="15" height="24" viewBox="0 0 15 24" fill="none" xmlns="http://www.w3.org/2000/svg">
<path d="M14.9993 12.379C14.9993 11.919 14.6475 11.5672 14.1875 11.5672C13.7275 11.5672 13.3758 11.919 13.3758 12.379C13.3758 15.5449 10.8052 18.1154 7.6393 18.1154C4.47341 18.1154 1.90283 15.5449 1.90283 12.379C1.90283 11.919 1.55106 11.5672 1.09106 11.5672C0.631062 11.5672 0.279297 11.919 0.279297 12.379C0.279297 16.1401 3.09342 19.306 6.82753 19.7119V21.8766H3.87812C3.41812 21.8766 3.06636 22.2284 3.06636 22.6884C3.06636 23.1484 3.41812 23.5002 3.87812 23.5002H11.4005C11.8605 23.5002 12.2122 23.1484 12.2122 22.6884C12.2122 22.2284 11.8605 21.8766 11.4005 21.8766H8.45106V19.7119C12.1852 19.306 14.9993 16.1401 14.9993 12.379Z" fill="#808080"/>
<path d="M7.63991 0.499817C5.1505 0.499817 3.12109 2.52923 3.12109 5.01864V12.3516C3.12109 14.8681 5.1505 16.8704 7.63991 16.8975C10.1293 16.8975 12.1587 14.8681 12.1587 12.3786V5.01864C12.1587 2.52923 10.1293 0.499817 7.63991 0.499817Z" fill="#808080"/>
</svg>
