<svg width="16" height="15" viewBox="0 0 16 15" fill="none" xmlns="http://www.w3.org/2000/svg">
<path d="M8.40034 2.40005C8.40034 2.64028 8.24019 2.80016 8.00024 2.80016C7.76028 2.80016 7.60013 2.64028 7.60013 2.40005V0.400103C7.60013 0.159874 7.76028 0 8.00024 0C8.24047 0 8.40034 0.160152 8.40034 0.400103V2.40005Z" fill="#F5AAAA"/>
<path d="M13.6402 2.92008L12.2401 4.32019C12.0785 4.48257 11.8425 4.48257 11.6804 4.32019C11.5205 4.16032 11.5205 3.92009 11.6804 3.76022L13.0805 2.36011C13.2401 2.20023 13.4806 2.20023 13.6402 2.36011C13.8 2.51998 13.8 2.76021 13.6402 2.92008Z" fill="#F5AAAA"/>
<path d="M13.5999 7.59996H15.5999C15.8401 7.59996 16 7.76011 16 8.00006C16 8.24029 15.8398 8.40017 15.5999 8.40017H13.5999C13.3597 8.40017 13.1998 8.24002 13.1998 8.00006C13.1998 7.75983 13.36 7.59996 13.5999 7.59996Z" fill="#F5AAAA"/>
<path d="M4.32017 4.32019C4.16337 4.47727 3.91868 4.47867 3.7602 4.32019L2.3601 2.92008C2.20022 2.76021 2.20022 2.51998 2.3601 2.36011C2.51996 2.20023 2.76019 2.20023 2.92007 2.36011L4.32017 3.76022C4.48005 3.92008 4.48005 4.16031 4.32017 4.32019Z" fill="#F5AAAA"/>
<path d="M2.40005 7.59999C2.64028 7.59999 2.80016 7.76014 2.80016 8.00009C2.80016 8.24004 2.64028 8.4002 2.40005 8.4002H0.400104C0.159875 8.4002 0 8.24004 0 8.00009C0 7.75986 0.160154 7.59999 0.400104 7.59999H2.40005Z" fill="#F5AAAA"/>
<path d="M3.15733 13.1247H12.7571C13.1971 13.1247 13.557 13.4846 13.557 13.9246C13.557 14.3646 13.1971 14.7245 12.7571 14.7245H3.15733C2.71735 14.7245 2.35742 14.3646 2.35742 13.9246C2.35742 13.4846 2.71733 13.1247 3.15733 13.1247Z" fill="#84888E"/>
<path d="M3.96484 8.17836C3.96484 5.97835 5.76473 4.17847 7.96474 4.17847C10.1648 4.17847 11.9646 5.97835 11.9646 8.17836V12.1783H3.96484V8.17836Z" fill="#EA5656"/>
<path d="M11.4638 7.04446C11.4638 8.56814 9.88087 9.80332 7.9282 9.80332C5.97553 9.80332 4.39258 8.56814 4.39258 7.04446C4.39258 5.59807 6.00232 4.17847 7.95499 4.17847C9.90766 4.17847 11.4638 5.52079 11.4638 7.04446Z" fill="#F08080"/>
</svg>
